<svg xmlns="http://www.w3.org/2000/svg" width="46" height="46" viewBox="0 0 46 46">
  <defs>
    <style>
      .cls-1 {
        fill: #e8663c;
        fill-rule: evenodd;
      }
    </style>
  </defs>
  <path id="icon" class="cls-1" d="M277.988,681.932v-5.885l-4.915-.393a18.311,18.311,0,0,0-.752-2.82l4.058-2.8-2.943-5.1-4.456,2.118A18.569,18.569,0,0,0,266.919,665l2.118-4.456-5.1-2.943-2.8,4.058a18.311,18.311,0,0,0-2.82-.752l-0.394-4.915h-5.884l-0.393,4.915a18.323,18.323,0,0,0-2.821.752l-2.8-4.057-5.1,2.942L243.058,665A18.408,18.408,0,0,0,241,667.06l-4.455-2.117-2.942,5.1,4.057,2.8a18.323,18.323,0,0,0-.752,2.821l-4.916.393v5.884l4.915,0.394a18.311,18.311,0,0,0,.752,2.82l-4.056,2.8,2.942,5.094L241,690.921a18.587,18.587,0,0,0,2.063,2.061l-2.118,4.456,5.1,2.941,2.8-4.056a18.394,18.394,0,0,0,2.82.752l0.393,4.915h5.885l0.393-4.915a18.283,18.283,0,0,0,2.82-.753l2.8,4.057,5.1-2.941-2.118-4.457a18.484,18.484,0,0,0,2.061-2.061l4.456,2.117,2.943-5.1-4.058-2.8a18.341,18.341,0,0,0,.752-2.82Zm-23,8.558a11.5,11.5,0,1,1,11.5-11.5A11.5,11.5,0,0,1,254.988,690.49Z" transform="translate(-232 -656)"/>
</svg>
