<svg xmlns="http://www.w3.org/2000/svg" width="48.844" height="39.844" viewBox="0 0 48.844 39.844">
  <defs>
    <style>
      .cls-1 {
        fill: #e8663c;
        fill-rule: evenodd;
      }
    </style>
  </defs>
  <path id="icon" class="cls-1" d="M599.19,668.146l-7.733-7.732a2.3,2.3,0,0,0-3.256,0l-18.122,18.122-7.417-7.417a2.3,2.3,0,0,0-3.256,0l-7.732,7.733a2.3,2.3,0,0,0,0,3.255l8.742,8.743a2.456,2.456,0,0,0,.274.331l7.733,7.732a2.3,2.3,0,0,0,3.256,0L599.19,671.4A2.3,2.3,0,0,0,599.19,668.146Z" transform="translate(-551.031 -659.75)"/>
</svg>
